<?xml version="1.0" standalone="no"?>
<!DOCTYPE svg PUBLIC "-//W3C//DTD SVG 20010904//EN"
 "http://www.w3.org/TR/2001/REC-SVG-20010904/DTD/svg10.dtd">
<svg version="1.0" xmlns="http://www.w3.org/2000/svg"
 width="640.000000pt" height="800.000000pt" viewBox="0 0 640.000000 800.000000"
 preserveAspectRatio="xMidYMid meet">
<metadata>
Created by potrace 1.16, written by Peter Selinger 2001-2019
</metadata>
<g transform="translate(0.000000,800.000000) scale(0.100000,-0.100000)"
fill="#000000" stroke="none">
<path d="M0 7827 l0 -173 141 -134 c258 -245 279 -267 279 -290 0 -33 19 -60
42 -60 19 0 20 4 14 42 -4 23 -14 50 -22 60 -12 12 -14 27 -9 57 4 23 10 43
15 46 18 11 70 126 76 167 12 90 49 153 96 162 16 3 43 20 59 37 26 28 33 31
55 21 23 -11 24 -10 18 14 -8 33 20 65 55 62 18 -2 26 2 29 15 5 27 -15 70
-40 86 -19 12 -24 11 -39 -8 -25 -31 -34 -26 -34 21 l0 43 -367 3 -368 2 0
-173z"/>
<path d="M1270 7968 c0 -18 -5 -92 -10 -165 -7 -96 -7 -139 1 -160 7 -15 13
-64 14 -108 6 -246 20 -356 49 -393 12 -16 16 -50 9 -75 -3 -13 -12 -17 -30
-15 -19 2 -29 13 -41 43 -20 50 -87 105 -128 105 -21 0 -17 -27 4 -32 22 -6
75 -97 109 -187 23 -61 24 -74 18 -176 -4 -60 -13 -137 -22 -170 -21 -85 -14
-164 19 -203 14 -17 29 -28 34 -24 4 4 -5 -9 -19 -29 -15 -20 -27 -43 -27 -51
0 -8 -10 -27 -21 -42 -12 -15 -32 -55 -44 -89 -13 -34 -34 -91 -47 -127 -39
-105 -62 -149 -79 -150 -29 0 -52 -36 -46 -70 4 -16 3 -30 -2 -30 -20 0 -37
-90 -22 -118 12 -23 -20 -46 -64 -47 l-30 0 2 -90 c1 -49 0 -82 -3 -72 -8 27
-24 10 -24 -27 0 -17 -6 -38 -12 -44 -10 -10 -10 -15 2 -22 12 -7 11 -12 -4
-29 -14 -15 -17 -30 -13 -56 4 -26 3 -34 -6 -29 -7 4 -4 -2 6 -13 22 -25 22
-52 0 -60 -28 -11 -48 -37 -45 -58 2 -15 1 -17 -6 -6 -6 7 -15 10 -21 6 -9 -5
-9 -10 -1 -20 7 -9 6 -16 -3 -24 -8 -6 -16 -8 -19 -5 -3 2 -8 -2 -11 -10 -6
-15 18 -30 34 -20 5 3 9 -2 9 -11 0 -9 -8 -19 -18 -22 -14 -3 -18 -11 -14 -29
5 -28 -12 -32 -27 -6 -9 14 -10 15 -11 1 0 -9 9 -27 20 -39 16 -18 19 -31 14
-54 -4 -17 -11 -34 -16 -37 -5 -3 -3 -23 5 -48 8 -22 11 -43 7 -46 -5 -3 -11
1 -13 7 -3 7 -6 4 -6 -7 -1 -11 6 -31 15 -43 14 -20 14 -22 -3 -23 -10 0 -13
-3 -7 -5 8 -3 8 -17 1 -48 -9 -42 -8 -46 19 -71 26 -25 27 -27 7 -21 -20 7
-23 4 -23 -23 0 -26 38 -81 55 -81 3 0 23 -18 45 -39 38 -37 39 -40 18 -43
-14 -2 -24 -12 -28 -28 -4 -15 -13 -24 -21 -22 -8 2 -11 0 -6 -4 4 -4 1 -15
-7 -23 -17 -18 -11 -30 21 -49 27 -14 30 -6 7 19 -23 25 -10 41 23 28 23 -8
24 -8 13 6 -19 23 0 18 28 -7 l25 -23 -6 23 c-3 14 -1 22 8 22 8 0 16 9 20 19
3 11 12 22 20 25 18 7 20 -5 3 -22 -9 -9 -9 -12 1 -12 9 0 8 -5 -3 -16 -20
-19 -21 -48 -2 -41 9 4 16 -3 20 -16 3 -12 15 -33 27 -45 11 -13 19 -26 16
-28 -6 -7 -47 18 -47 28 0 5 -9 17 -20 28 -24 24 -27 14 -4 -12 13 -14 14 -21
5 -32 -8 -10 -9 -16 -1 -21 5 -3 10 -18 10 -33 0 -19 3 -23 11 -15 8 8 8 17 0
31 -17 33 -13 37 13 13 18 -17 25 -19 29 -9 4 10 7 11 18 1 10 -10 10 -16 1
-25 -7 -7 -12 -20 -12 -29 0 -9 -7 -22 -15 -29 -21 -17 -19 -36 6 -59 31 -29
34 -98 6 -128 -17 -19 -18 -27 -10 -45 6 -13 14 -31 17 -41 4 -13 12 -17 26
-12 11 4 20 2 20 -4 0 -6 11 -11 25 -11 34 0 31 16 -5 29 -16 5 -30 15 -30 21
0 6 -5 8 -11 4 -6 -3 -4 5 6 19 9 14 23 28 31 31 9 3 13 10 9 15 -3 5 0 13 6
17 15 9 30 -16 23 -38 -7 -23 11 -31 30 -12 20 19 20 25 2 18 -22 -8 -28 34
-6 46 28 15 29 13 36 -30 4 -22 11 -40 16 -40 5 0 4 -10 -3 -21 -8 -15 -8 -19
0 -15 6 4 11 2 11 -5 0 -9 3 -9 14 0 21 17 28 -12 11 -45 -8 -15 -11 -32 -7
-38 3 -6 11 1 16 17 5 15 13 27 17 27 16 0 20 -20 8 -41 -10 -19 -9 -21 6 -16
9 4 19 7 21 7 2 0 4 9 4 19 0 11 4 22 10 26 5 3 8 11 6 18 -1 7 -1 9 1 5 8
-15 28 -8 42 13 7 13 9 24 4 28 -14 9 -24 41 -13 41 6 0 10 -6 11 -12 0 -7 4
-4 9 7 8 19 9 19 9 1 1 -15 4 -16 15 -7 10 8 16 9 21 1 9 -14 -4 -32 -20 -26
-7 2 -15 -4 -18 -15 -4 -16 -2 -19 14 -14 21 7 27 -10 7 -19 -7 -4 -3 -4 10
-2 27 5 43 -21 21 -35 -10 -6 -10 -9 -1 -9 6 0 12 -7 12 -16 0 -11 6 -15 20
-11 14 4 20 0 20 -11 0 -10 5 -24 10 -32 9 -13 12 -13 20 2 11 18 32 15 60 -9
8 -7 19 -13 23 -13 4 1 16 -9 26 -22 l19 -23 -4 35 c-2 19 -6 45 -9 58 -4 17
-1 22 15 22 21 0 27 -15 10 -25 -7 -4 -6 -14 1 -28 7 -11 12 -33 11 -48 0 -15
8 -35 19 -45 21 -19 40 -11 21 8 -17 17 -15 48 3 48 8 0 15 5 15 10 0 6 6 10
13 10 8 0 11 14 9 45 -4 42 8 60 23 35 4 -6 11 -8 16 -5 5 4 9 -3 9 -14 0 -12
-4 -21 -8 -21 -9 0 2 -137 12 -147 3 -3 6 -1 6 6 0 8 7 10 20 6 12 -4 20 -2
20 5 0 17 51 3 75 -21 16 -16 18 -22 8 -39 -20 -31 5 -35 32 -6 25 27 49 33
60 16 9 -15 25 -12 25 5 0 8 5 15 11 15 7 0 9 -9 6 -21 -3 -12 0 -22 9 -26 8
-3 14 -11 14 -19 0 -8 4 -14 10 -14 5 0 7 6 4 14 -5 12 7 14 63 12 37 -2 81
-7 96 -11 24 -6 29 -4 34 14 4 15 12 20 27 17 11 -2 15 -1 9 1 -25 9 -13 19
16 15 27 -4 30 -1 33 29 4 43 38 55 38 15 0 -16 6 -26 14 -26 8 0 18 -9 21
-21 5 -14 13 -19 25 -16 10 3 21 -1 24 -9 3 -9 0 -11 -12 -7 -15 6 -15 5 -3
-10 7 -9 21 -17 29 -17 13 0 13 -3 4 -12 -10 -10 -15 -10 -22 2 -5 8 -12 11
-16 7 -4 -4 -2 -13 4 -19 7 -7 12 -16 12 -20 0 -13 -38 -9 -43 5 -3 7 -6 4 -6
-7 -1 -12 -6 -16 -17 -12 -9 3 -12 2 -8 -5 3 -6 -4 -20 -16 -31 -18 -17 -24
-18 -31 -7 -7 12 -13 11 -36 -3 -34 -20 -39 -37 -17 -63 14 -18 15 -18 10 -2
-3 10 -2 16 2 13 5 -3 23 4 40 15 37 22 77 26 69 6 -3 -8 6 -12 27 -12 42 0
47 -32 11 -71 -22 -23 -28 -26 -36 -14 -8 13 -11 13 -22 0 -17 -22 -156 -25
-214 -5 -24 8 -73 14 -111 13 l-67 -1 75 -7 c41 -3 104 -16 140 -29 36 -13 94
-26 129 -29 62 -5 101 -25 101 -52 0 -5 5 -10 11 -10 12 0 3 -71 -10 -80 -5
-3 -14 -15 -20 -28 -8 -14 -18 -21 -27 -18 -10 4 -14 -2 -14 -22 0 -16 -5 -33
-11 -39 -12 -12 -9 -54 4 -53 4 0 22 -6 41 -14 48 -20 126 -4 126 26 0 12 23
43 55 73 36 34 53 57 50 67 -7 17 31 33 41 17 3 -5 12 -5 22 0 10 5 39 9 65 9
63 0 129 12 145 25 8 6 24 12 35 13 39 3 67 16 67 31 0 8 6 13 12 11 7 -3 19
1 26 9 7 7 21 13 31 13 10 0 30 11 46 25 23 22 29 24 43 13 12 -10 14 -10 8 0
-5 8 -1 12 12 12 11 0 25 6 31 14 6 7 31 21 55 30 29 11 46 25 50 39 5 17 8
19 15 8 7 -11 15 -10 42 10 18 13 65 42 104 65 41 23 70 47 69 55 -1 11 6 14
21 11 17 -3 25 2 30 17 3 12 12 21 20 21 7 0 15 5 17 11 6 17 101 23 129 9 20
-10 22 -10 12 1 -18 18 -16 40 2 33 11 -5 13 -2 9 10 -8 21 4 20 44 -4 18 -11
38 -20 45 -20 14 1 -39 48 -65 58 -14 6 -1 20 59 67 42 33 95 77 118 98 23 20
47 37 52 37 5 0 18 9 28 20 10 11 24 20 32 20 7 0 13 6 13 14 0 25 50 57 79
50 14 -3 38 -8 54 -11 15 -3 27 -10 27 -17 0 -6 12 -12 27 -13 32 -1 57 -33
59 -74 1 -22 -5 -30 -29 -40 -16 -7 -43 -25 -59 -41 -16 -15 -35 -28 -44 -28
-8 0 -19 -11 -24 -25 -5 -14 -18 -28 -27 -31 -79 -25 -148 -67 -138 -85 3 -4
-4 -5 -15 -2 -14 4 -19 1 -15 -8 3 -9 -6 -19 -25 -27 -16 -8 -30 -18 -30 -23
0 -6 5 -7 10 -4 18 11 41 -17 39 -44 -1 -14 4 -39 11 -54 12 -25 12 -33 0 -54
-23 -40 -44 -49 -74 -34 -27 15 -41 54 -37 108 1 24 -5 36 -28 52 -37 27 -45
26 -30 -1 9 -16 9 -23 0 -26 -6 -2 -11 -11 -11 -19 0 -9 -6 -13 -15 -9 -9 3
-15 0 -15 -9 0 -8 -4 -15 -10 -15 -5 0 -10 -7 -10 -15 0 -9 -8 -14 -22 -12
-14 1 -23 -4 -23 -13 -1 -8 -6 -14 -13 -12 -7 1 -15 -5 -18 -13 -4 -8 -14 -15
-23 -15 -10 0 -32 -18 -50 -39 -31 -37 -65 -57 -74 -42 -2 3 -2 0 0 -8 4 -18
-15 -41 -35 -41 -15 0 -62 -48 -62 -64 0 -4 -7 -6 -15 -2 -9 3 -15 0 -15 -10
0 -10 -7 -14 -20 -12 -14 2 -25 -5 -33 -22 -7 -14 -27 -31 -45 -39 -17 -8 -34
-23 -38 -33 -4 -13 -15 -18 -39 -18 -25 0 -33 -4 -29 -14 6 -15 -42 -50 -57
-41 -5 4 -8 3 -7 -2 5 -14 -34 -59 -39 -45 -7 19 -23 14 -23 -7 0 -22 -16 -37
-22 -20 -3 8 -58 -13 -97 -38 -2 -1 2 -9 9 -18 11 -13 7 -15 -26 -15 -29 0
-43 -6 -52 -21 -7 -12 -16 -18 -19 -15 -10 10 -43 -26 -43 -46 0 -11 -4 -17
-9 -13 -5 3 -12 1 -16 -5 -3 -5 -17 -7 -31 -4 -19 5 -24 2 -24 -14 0 -18 -19
-34 -46 -36 -6 -1 -18 -9 -28 -19 -16 -16 -30 -21 -49 -18 -5 1 -26 -4 -47
-10 -35 -11 -38 -14 -29 -35 7 -20 5 -24 -11 -24 -11 0 -20 -6 -20 -12 0 -7
-12 -24 -25 -37 -14 -13 -25 -27 -25 -31 0 -5 -8 -9 -17 -9 -10 0 -29 -2 -43
-4 -14 -3 -35 -5 -47 -6 -14 -1 -23 -9 -26 -24 l-4 -22 -9 24 c-10 23 -11 23
-29 5 -10 -11 -29 -17 -42 -16 -13 2 -30 -1 -36 -7 -7 -5 -39 -9 -70 -8 -51 2
-57 0 -53 -15 6 -27 -1 -22 -29 19 -37 56 -30 20 8 -40 60 -93 125 -135 252
-163 101 -21 140 -20 190 6 21 11 45 20 53 20 32 0 377 179 482 250 83 57 232
150 239 150 5 0 11 4 13 8 2 4 37 30 78 57 41 27 116 82 166 122 50 40 98 73
107 73 9 0 19 5 22 10 15 24 51 8 89 -41 60 -75 213 -223 376 -360 157 -133
409 -383 456 -451 16 -23 39 -53 52 -66 12 -14 22 -28 22 -32 0 -4 16 -24 35
-44 19 -21 35 -42 35 -47 0 -5 27 -64 59 -132 59 -123 119 -262 139 -327 13
-39 24 -203 22 -321 -1 -43 3 -80 8 -83 12 -7 25 85 16 119 -5 19 -2 25 10 25
16 0 42 -38 32 -48 -3 -3 -6 0 -6 6 0 7 -4 12 -9 12 -5 0 -9 -10 -9 -22 0 -38
-14 -108 -22 -108 -3 0 -2 -28 3 -62 8 -45 7 -63 -1 -66 -6 -2 -8 -10 -5 -19
3 -8 0 -19 -7 -23 -15 -9 -20 -82 -6 -77 5 2 14 12 20 22 24 42 46 56 46 30 0
-8 -5 -15 -11 -15 -8 0 -8 -4 -2 -12 16 -20 25 -86 13 -93 -8 -5 -7 -12 2 -23
10 -12 10 -16 1 -19 -7 -3 -13 -9 -13 -14 0 -4 7 -6 15 -3 8 4 15 17 15 30 0
13 5 24 11 24 6 0 9 -16 7 -37 -2 -24 -8 -37 -15 -35 -7 1 -13 -2 -13 -8 0 -5
6 -10 13 -10 23 0 37 -21 27 -41 -7 -11 -7 -20 0 -24 5 -3 10 -29 10 -57 0
-41 -3 -51 -20 -55 -11 -3 -20 -14 -20 -24 0 -21 11 -24 25 -10 6 6 14 1 22
-15 10 -21 8 -27 -10 -45 -29 -27 -49 -21 -69 21 -15 29 -18 31 -18 13 0 -38
37 -66 77 -60 28 5 34 3 31 -11 -3 -13 -12 -16 -42 -14 -22 2 -50 10 -62 18
-21 14 -23 14 -29 -16 -4 -16 -16 -35 -28 -42 -12 -6 -35 -22 -51 -35 -48 -40
-75 -47 -95 -24 -19 22 -105 39 -115 23 -10 -16 -91 -26 -113 -14 -13 8 -22 7
-35 -5 -19 -17 -76 -20 -106 -4 -11 6 -46 14 -78 17 -65 8 -100 25 -109 55 -4
10 -15 19 -25 19 -21 0 -50 -25 -50 -43 0 -6 7 -2 15 9 14 18 14 18 15 -6 0
-14 5 -32 10 -40 7 -12 10 -8 10 14 0 36 10 28 19 -16 4 -18 12 -33 18 -33 6
0 15 -3 19 -7 4 -5 17 -8 29 -8 12 0 30 -9 40 -20 17 -19 34 -20 761 -20 409
0 744 2 744 5 0 8 -49 86 -80 125 -32 41 -70 146 -105 289 l-26 104 39 76 c22
42 58 112 81 155 l42 80 47 -2 c60 -3 416 -41 460 -48 l32 -6 0 251 c0 246 0
251 -20 251 -14 0 -20 -6 -18 -17 2 -12 -4 -19 -19 -21 -13 -2 -23 1 -23 7 0
6 -18 11 -40 11 -28 0 -40 -4 -40 -14 0 -12 -24 -15 -124 -18 l-125 -3 -7 63
c-3 35 -4 66 0 69 3 4 6 -12 6 -35 0 -48 21 -58 41 -20 21 40 49 50 49 18 0
-18 2 -19 20 -8 25 16 54 1 58 -31 3 -17 10 -21 44 -21 38 0 40 1 34 25 -6 24
-4 25 39 25 25 0 45 -4 45 -10 0 -5 18 -10 40 -10 l40 0 0 141 0 141 -22 -7
c-13 -4 -36 -8 -53 -9 -16 -1 -34 -4 -40 -8 -15 -9 -155 3 -155 13 0 5 21 9
48 10 26 0 56 3 67 5 11 2 50 4 88 4 l67 1 0 3209 0 3210 -1766 0 c-1441 0
-1764 -2 -1756 -13 16 -18 -8 -61 -36 -65 -15 -2 -22 -10 -22 -24 0 -12 -8
-30 -17 -40 -9 -10 -20 -45 -24 -77 -3 -32 -17 -87 -31 -122 -18 -48 -23 -78
-20 -119 7 -96 1 -174 -14 -204 -17 -36 -18 -56 -1 -56 6 0 4 -5 -5 -11 -23
-13 -25 -69 -3 -69 8 0 15 -8 15 -18 0 -11 9 -27 19 -36 11 -10 17 -24 15 -31
-3 -7 7 -22 21 -34 19 -14 27 -31 28 -53 1 -20 -3 -32 -9 -31 -6 1 -22 -10
-35 -25 -13 -15 -17 -21 -9 -14 19 16 35 15 54 -4 19 -19 13 -32 -20 -44 -18
-7 -42 -3 -94 16 -38 15 -67 30 -64 35 3 5 -2 9 -10 9 -9 0 -16 8 -16 19 0 11
-5 23 -11 26 -6 4 -68 6 -137 5 -264 -4 -245 -5 -280 27 -39 35 -47 74 -32
146 15 76 56 113 128 116 28 1 74 6 103 11 28 6 77 10 108 10 33 1 64 7 75 15
11 8 14 15 8 15 -7 0 -12 6 -12 14 0 21 -33 26 -192 26 -131 0 -152 2 -185 21
-53 30 -62 46 -63 112 0 68 16 98 72 133 34 22 53 25 190 31 128 5 154 9 170
25 10 10 18 27 18 37 0 19 -10 20 -208 23 l-208 3 -34 27 -34 27 3 80 3 81
-56 0 -56 0 0 -80 c0 -76 -2 -83 -27 -105 -43 -38 -88 -45 -282 -47 -239 -2
-251 6 -251 158 l0 74 -70 0 -70 0 0 -32z m2354 -95 c31 -29 60 -53 66 -53 5
0 10 -4 10 -9 0 -14 68 -51 93 -51 27 0 57 -32 57 -61 0 -25 23 -71 46 -90 9
-7 42 -47 74 -89 32 -41 68 -86 81 -101 13 -14 40 -47 59 -73 52 -71 69 -88
88 -84 26 5 54 72 59 141 4 53 0 78 -31 167 -69 200 -67 188 -43 205 29 20 95
38 114 30 29 -10 54 6 69 46 14 34 20 39 49 39 42 0 81 -39 95 -94 6 -22 23
-68 37 -101 20 -44 29 -86 34 -155 4 -58 17 -125 32 -172 27 -82 48 -280 30
-291 -5 -3 -113 -11 -239 -17 -202 -9 -230 -9 -240 5 -14 19 -54 20 -54 1 0
-18 -31 -26 -110 -26 -36 0 -117 -5 -180 -10 -63 -5 -189 -14 -280 -20 -91 -6
-207 -14 -258 -18 l-94 -7 -14 26 c-7 15 -19 70 -25 123 -10 83 -9 103 5 145
9 28 16 64 16 80 0 27 -3 31 -28 31 -46 0 -98 76 -86 124 5 21 13 24 67 28 67
6 167 49 201 87 14 15 29 21 53 19 47 -3 62 17 69 92 3 43 16 87 37 131 29 61
33 65 59 60 15 -3 52 -30 82 -58z m2130 -138 c104 -27 208 -89 283 -168 81
-86 113 -137 150 -243 23 -68 27 -94 26 -189 0 -90 -5 -124 -25 -187 -64 -194
-239 -361 -434 -413 -77 -21 -232 -21 -309 0 -222 59 -398 238 -450 457 -19
81 -19 205 1 288 49 209 223 392 428 451 79 23 250 25 330 4z m-3906 -41 c50
-7 102 -40 119 -74 16 -33 24 -136 13 -165 -5 -12 -26 -33 -47 -46 -36 -23
-47 -24 -253 -27 -202 -4 -216 -3 -237 16 -50 43 -69 155 -39 227 27 64 58 74
240 74 89 1 180 -2 204 -5z m17 -389 c86 -23 114 -62 117 -164 2 -73 1 -74
-33 -102 -19 -15 -52 -32 -74 -38 -36 -8 -250 -16 -366 -12 -51 1 -87 26 -107
73 -17 40 -4 166 20 190 10 10 18 22 18 27 0 13 47 22 83 16 18 -3 66 1 107 9
100 19 164 19 235 1z m42 -388 c-3 -8 0 -20 6 -26 8 -8 4 -11 -16 -11 -19 0
-27 -5 -27 -18 0 -25 -19 -42 -48 -42 -26 0 -57 -14 -84 -40 -10 -9 -31 -23
-46 -31 -15 -8 -36 -22 -46 -31 -11 -10 -32 -24 -48 -30 -15 -7 -28 -18 -28
-24 0 -14 -44 -34 -77 -34 -14 0 -41 -10 -60 -21 -25 -15 -34 -18 -32 -8 1 8
-6 32 -16 54 -13 31 -16 58 -13 118 5 88 25 125 75 142 17 6 128 11 248 13
184 2 217 0 212 -11z m733 -582 c8 -5 23 -8 33 -7 14 3 17 -2 13 -20 -3 -13
-7 -39 -10 -58 -6 -32 -26 -64 -73 -114 -38 -42 -65 -89 -45 -84 4 1 17 -3 30
-10 19 -11 23 -10 29 3 3 9 15 21 27 26 29 13 60 32 68 44 4 6 8 0 8 -12 0
-13 5 -23 10 -23 13 0 1 -52 -13 -61 -5 -4 -8 -28 -5 -53 6 -46 1 -55 -19 -35
-17 17 -58 7 -57 -14 1 -11 -5 -17 -18 -17 -18 0 -71 -14 -165 -44 -55 -17
-72 -7 -49 29 15 23 16 29 5 36 -10 6 -6 9 14 9 17 0 27 5 27 15 0 8 7 15 15
15 9 0 26 7 39 15 30 20 24 58 -8 53 -11 -1 -26 1 -31 4 -6 4 -33 9 -60 12
-61 7 -88 30 -80 68 3 15 8 42 11 58 3 17 13 38 22 46 9 9 18 26 19 36 7 45
42 73 106 83 76 13 137 13 157 0z m470 -407 c0 -17 3 -19 9 -10 10 16 21 -15
21 -59 0 -35 -20 -50 -75 -56 -54 -7 -138 29 -154 65 -15 32 -14 34 10 22 11
-7 18 -17 16 -25 -4 -9 3 -12 21 -10 46 4 79 23 109 59 33 42 43 45 43 14z
m-350 -40 c11 -12 20 -26 20 -30 0 -5 24 -20 53 -32 45 -21 124 -92 185 -168
32 -40 -33 -85 -178 -125 -65 -18 -70 -16 -70 16 0 39 -17 49 -29 18 -6 -14
-15 -28 -21 -32 -5 -3 -8 -10 -5 -15 10 -16 -57 -127 -87 -144 -34 -21 -67
-13 -121 28 -19 15 -39 26 -45 26 -13 0 -26 36 -17 50 3 5 12 10 18 10 14 0
89 39 97 49 3 4 16 15 29 24 18 12 28 14 38 5 10 -8 13 -7 13 6 0 9 5 16 10
16 6 0 9 3 8 8 0 4 1 14 4 22 22 64 28 91 23 100 -4 6 -10 8 -15 5 -4 -3 -11
3 -14 12 -4 9 -1 20 6 25 19 12 28 10 28 -7 0 -8 5 -15 10 -15 14 0 12 34 -2
48 -10 10 -5 11 20 6 33 -7 45 8 18 23 -7 4 -16 27 -20 51 -7 49 9 57 44 20z
m2037 -540 l118 -73 88 -5 c72 -5 91 -10 109 -28 19 -19 20 -25 11 -56 -13
-42 -13 -42 112 -117 104 -62 160 -111 259 -229 74 -88 98 -121 110 -155 5
-14 -2 -10 -24 13 -17 17 -36 32 -43 31 -9 0 -9 -2 1 -6 6 -2 12 -9 12 -15 0
-6 -7 -8 -15 -4 -8 3 -21 -4 -30 -17 -12 -16 -17 -19 -27 -9 -17 17 -38 15
-38 -3 0 -13 -4 -13 -22 -3 -13 7 -30 19 -39 26 -13 10 -18 10 -28 -2 -7 -8
-19 -12 -27 -9 -8 3 -20 0 -27 -5 -8 -7 -18 -7 -27 -2 -22 14 -30 12 -30 -6 0
-13 -7 -15 -40 -9 -23 4 -46 3 -53 -3 -16 -13 -107 -22 -107 -11 0 5 -7 9 -15
9 -8 0 -15 9 -15 20 0 11 -7 20 -16 20 -10 0 -13 -6 -10 -18 6 -17 -2 -18
-108 -17 -80 1 -120 6 -131 15 -11 9 -19 10 -23 3 -11 -16 -139 -26 -144 -11
-3 9 -9 8 -22 -5 -25 -25 -55 -21 -66 8 -10 26 -45 35 -52 13 -3 -7 -12 -9
-24 -4 -18 7 -18 8 4 26 12 10 22 22 22 26 0 4 -5 3 -12 -4 -9 -9 -14 -7 -24
6 -11 14 -15 14 -22 4 -5 -8 -27 -15 -48 -17 -25 -3 -44 -11 -53 -24 -14 -21
-37 -28 -43 -12 -1 4 -25 11 -52 13 -42 5 -49 3 -53 -13 -8 -27 -23 -23 -23 6
0 14 -4 25 -10 25 -5 0 -10 -5 -10 -11 0 -5 -4 -8 -9 -4 -5 3 -12 1 -15 -4 -3
-5 1 -11 9 -15 8 -3 12 -12 9 -20 -7 -19 16 -32 27 -15 4 7 12 10 16 5 4 -5 2
-11 -4 -13 -14 -5 -18 -33 -5 -33 17 0 44 38 33 45 -16 10 -13 35 4 35 20 0
31 -28 16 -43 -11 -11 -16 -47 -5 -47 3 0 15 5 26 11 16 9 23 8 29 -2 15 -25
10 -49 -10 -49 -11 0 -23 -4 -26 -10 -8 -13 -198 -13 -211 0 -6 6 -27 11 -46
12 -26 1 -35 5 -31 15 3 7 -2 15 -10 19 -25 9 -1 66 27 62 13 -2 20 -9 18 -19
-2 -13 11 -15 83 -15 60 1 79 4 65 10 -11 5 -20 15 -20 22 0 17 -42 28 -74 20
-16 -4 -29 0 -41 14 -14 15 -22 17 -37 9 -24 -13 -48 -5 -48 15 0 8 -14 41
-31 73 -40 76 -45 109 -17 116 30 8 98 -21 91 -39 -6 -17 13 -19 23 -2 4 6 -1
17 -11 25 -11 7 -14 13 -7 13 6 0 19 -8 29 -19 17 -18 55 -22 69 -8 13 13 53
7 70 -10 17 -17 18 -17 11 0 -5 14 -1 17 28 17 21 0 35 -5 35 -12 0 -10 3 -9
9 1 6 10 10 10 16 1 4 -6 17 -9 30 -6 13 3 27 1 30 -4 4 -6 11 -8 16 -4 5 3
21 -2 36 -11 14 -9 22 -12 18 -6 -7 13 35 6 67 -10 9 -5 24 -6 34 -2 13 5 16
3 11 -9 -3 -10 0 -19 9 -22 7 -3 13 0 11 6 -1 6 4 13 11 15 6 3 12 -2 12 -10
0 -16 28 -16 63 -2 14 6 20 2 24 -14 6 -25 16 -27 33 -6 7 8 25 15 40 15 14 0
30 3 34 8 4 4 22 8 39 9 78 6 92 9 93 21 3 25 6 26 13 4 l6 -24 27 21 c29 23
48 27 48 10 0 -5 5 -7 10 -4 6 4 17 2 24 -4 10 -9 19 -6 37 9 l24 19 -25 1
c-23 1 -23 2 -5 9 22 9 145 24 183 22 13 0 33 6 45 14 12 8 31 15 43 15 25 0
44 48 24 60 -6 4 -10 12 -8 18 3 12 -23 30 -72 52 -20 9 -22 13 -10 21 12 8
10 10 -7 6 -13 -3 -23 -2 -23 3 0 4 -11 11 -25 14 -14 4 -24 10 -21 14 3 5
-15 14 -39 21 -24 7 -46 19 -49 28 -3 8 -10 11 -16 8 -5 -3 -10 -1 -10 4 0 6
-7 11 -15 11 -8 0 -15 5 -15 10 0 6 -12 10 -27 11 l-28 1 25 7 25 7 -24 6
c-15 4 -20 11 -15 19 4 7 3 10 -3 6 -6 -4 -32 8 -59 25 -64 42 -104 64 -131
72 -21 7 -22 5 -17 -21 5 -26 0 -31 -57 -68 -34 -21 -67 -44 -73 -50 -19 -20
-128 -56 -145 -49 -11 5 1 12 39 25 30 10 42 16 26 13 -26 -4 -27 -3 -13 11 9
8 20 15 26 15 6 0 20 9 31 20 21 21 50 27 50 11 0 -5 -13 -14 -30 -20 -16 -5
-30 -15 -30 -20 0 -14 1 -14 36 4 43 22 81 55 65 55 -8 0 -2 10 15 25 20 18
30 21 36 12 6 -9 8 -8 8 4 0 8 -5 20 -11 26 -14 14 -52 4 -45 -13 3 -8 0 -11
-9 -7 -8 3 -28 -6 -44 -18 -74 -60 -87 -69 -95 -69 -5 0 -3 6 3 14 14 16 158
116 168 116 5 0 17 11 28 25 11 13 21 24 22 25 1 0 55 -33 120 -72z m-1633
-366 c3 -5 27 -10 53 -11 71 -3 73 -3 73 -18 0 -15 2 -15 178 -18 82 -2 138
-7 145 -14 6 -6 16 -11 21 -11 6 0 4 4 -4 10 -8 5 -11 12 -7 16 3 4 14 1 23
-6 12 -11 17 -11 23 -2 5 9 15 6 34 -12 28 -26 39 -19 12 8 -25 24 -17 31 8 7
16 -14 30 -19 43 -15 16 6 16 4 -3 -13 -25 -23 -32 -43 -8 -23 9 7 19 10 22 6
4 -4 1 -11 -7 -16 -12 -7 -11 -12 5 -32 11 -13 22 -25 25 -28 12 -12 30 -63
30 -86 0 -44 -28 -92 -69 -121 -31 -22 -38 -33 -34 -50 6 -26 1 -28 -28 -13
-14 8 -19 7 -19 -1 0 -8 -6 -7 -17 3 -10 8 -34 14 -55 13 -36 -2 -37 -1 -31
28 3 16 2 32 -3 36 -20 13 -44 61 -44 86 0 15 -6 25 -14 25 -8 0 -17 6 -19 13
-4 9 -6 9 -6 0 -1 -6 3 -14 8 -17 10 -6 3 -46 -8 -46 -8 0 -31 50 -31 69 0 8
-3 11 -6 8 -4 -3 -18 3 -32 13 -13 11 -32 20 -42 20 -26 0 -32 12 -12 26 9 7
14 16 9 20 -4 4 -21 -2 -37 -14 -16 -12 -40 -22 -53 -22 -17 0 -24 -5 -23 -17
1 -14 -9 -19 -49 -23 -27 -3 -56 -9 -64 -14 -7 -5 -36 -11 -65 -15 -35 -4 -51
-11 -52 -21 -1 -8 -2 -23 -3 -33 0 -10 -5 -16 -11 -12 -5 3 -7 12 -4 19 3 8 1
17 -5 21 -6 3 -11 -1 -11 -9 0 -18 -16 -21 -25 -6 -12 19 -55 -21 -55 -51 0
-31 -20 -42 -20 -11 0 9 -7 26 -15 36 -17 22 -20 40 -6 32 5 -3 12 6 15 19 4
15 18 30 32 36 23 8 26 14 20 39 -3 17 -1 30 4 30 6 0 10 15 9 33 0 29 -1 30
-9 10 -6 -14 -18 -23 -30 -23 -40 0 -16 34 55 77 39 23 76 47 83 54 7 6 24 9
38 6 13 -2 24 0 24 4 0 11 37 12 44 1z m1850 -942 c-5 -22 0 -31 26 -50 50
-36 26 -49 -115 -65 -30 -3 -30 -3 -26 42 2 26 9 47 17 50 8 3 14 15 14 27 0
20 5 23 45 23 43 1 44 0 39 -27z m-369 -643 c18 -4 20 -13 23 -120 2 -91 -1
-123 -13 -148 -19 -36 -49 -36 -73 -1 -15 23 -14 23 11 17 15 -4 27 -5 27 -2
0 10 -151 118 -195 139 -25 12 -45 27 -45 34 0 15 26 76 37 88 7 7 182 3 228
-7z"/>
<path d="M5936 7465 c5 -11 2 -13 -10 -9 -23 9 -20 -14 8 -50 124 -164 106
-395 -44 -547 -79 -79 -148 -110 -260 -117 -97 -5 -159 7 -220 42 -105 61
-166 126 -197 210 -15 41 -21 46 -43 44 -32 -4 -29 -30 10 -109 145 -286 534
-347 760 -118 93 94 140 209 140 345 0 62 -29 167 -64 233 -14 27 -20 31 -28
20 -8 -11 -8 -9 -4 5 4 12 -1 27 -15 43 -26 26 -41 30 -33 8z"/>
<path d="M5574 7406 c-3 -9 -4 -22 -1 -30 4 -10 -8 -20 -38 -31 -48 -19 -91
-58 -80 -74 3 -6 20 -10 38 -10 18 1 48 -2 67 -6 32 -7 33 -6 16 7 -18 14 -17
16 12 37 l31 22 16 -31 c8 -16 23 -30 33 -30 11 0 13 3 6 8 -6 4 -19 22 -28
39 -13 27 -14 36 -4 53 10 15 10 25 2 38 -15 23 -62 28 -70 8z"/>
<path d="M490 7050 c-6 -12 -12 -60 -13 -108 -2 -100 12 -132 72 -160 24 -12
43 -32 59 -64 32 -63 57 -64 68 -5 17 100 6 145 -48 202 -53 55 -83 105 -87
148 -2 16 -41 6 -51 -13z"/>
<path d="M1730 3045 c-19 -7 -62 -21 -95 -30 -77 -22 -134 -46 -153 -64 -11
-12 -18 -12 -34 -2 -19 12 -20 11 -13 -16 9 -38 10 -38 41 -14 15 11 30 21 35
21 4 0 20 5 36 11 27 12 58 14 197 17 l68 2 -7 28 c-3 15 -14 35 -23 44 -15
14 -21 15 -52 3z"/>
<path d="M1039 1883 c-2 -43 -1 -60 4 -153 6 -92 18 -160 28 -160 5 0 21 -18
36 -41 21 -32 31 -39 52 -37 25 3 26 5 25 69 -1 40 -9 87 -23 122 -11 32 -21
72 -21 89 0 21 -13 48 -41 85 -54 70 -59 72 -60 26z"/>
<path d="M945 563 c-11 -3 -29 -11 -39 -19 -13 -9 -24 -10 -32 -3 -8 6 -13 5
-18 -6 -3 -8 -12 -15 -20 -15 -8 0 -18 -9 -21 -20 -4 -13 -15 -20 -32 -20 -22
0 -25 3 -21 30 3 22 1 30 -10 30 -9 0 -13 -3 -10 -6 3 -3 -5 -17 -18 -31 -20
-22 -30 -25 -81 -23 -110 4 -108 5 -111 -45 -1 -25 -9 -63 -17 -86 -8 -23 -15
-43 -15 -45 0 -2 76 -4 169 -4 l169 0 26 83 c15 46 24 91 20 100 -5 15 1 17
45 17 l51 0 0 35 c0 19 -3 34 -7 34 -5 -1 -17 -4 -28 -6z"/>
</g>
</svg>
