<?xml version="1.0" standalone="no"?>
<!DOCTYPE svg PUBLIC "-//W3C//DTD SVG 20010904//EN"
 "http://www.w3.org/TR/2001/REC-SVG-20010904/DTD/svg10.dtd">
<svg version="1.0" xmlns="http://www.w3.org/2000/svg"
 width="1035.000000pt" height="734.000000pt" viewBox="0 0 1035.000000 734.000000"
 preserveAspectRatio="xMidYMid meet">
<metadata>
Created by potrace 1.16, written by Peter Selinger 2001-2019
</metadata>
<g transform="translate(0.000000,734.000000) scale(0.100000,-0.100000)"
fill="#000000" stroke="none">
<path d="M3132 5101 c-963 -437 -1748 -799 -1744 -803 4 -3 407 -151 897 -329
490 -177 892 -323 894 -325 4 -4 -155 -993 -166 -1027 -9 -33 89 -116 189
-162 48 -22 88 -46 88 -52 0 -7 4 -13 8 -13 5 0 17 -7 28 -16 14 -12 15 -14 3
-11 -12 4 -64 -53 -185 -199 -93 -113 -170 -208 -172 -213 -1 -4 31 -35 72
-69 l74 -62 81 96 c45 53 81 94 81 91 0 -3 -11 -53 -25 -111 -14 -58 -25 -112
-25 -119 0 -8 34 -21 93 -34 50 -11 94 -19 96 -18 5 5 120 497 121 515 0 10
-34 33 -91 60 -50 25 -93 48 -95 52 -3 4 52 -20 121 -53 68 -32 126 -59 128
-59 2 0 12 18 22 40 21 47 21 47 163 25 271 -40 453 -49 1007 -50 353 0 597 5
705 13 659 52 1066 150 1229 297 l37 33 -68 469 c-37 257 -64 471 -60 475 4 3
43 22 87 42 l80 35 -71 1 c-86 0 -157 20 -212 60 -47 34 -82 94 -82 140 0 77
71 152 174 184 48 15 56 21 56 43 0 84 -62 1049 -68 1055 -6 6 -1469 684
-1668 773 l-51 22 -1751 -796z"/>
<path d="M6680 5038 c0 -43 49 -881 56 -954 l5 -61 50 -6 c105 -13 210 -85
230 -159 13 -49 -1 -101 -38 -141 -15 -16 -23 -28 -16 -26 35 12 1373 605
1373 609 0 4 -1344 627 -1622 752 l-38 17 0 -31z"/>
</g>
</svg>
